<svg xmlns="http://www.w3.org/2000/svg" width="66.1" height="31" viewBox="0 0 66.1 31"><g fill="#e57c63" data-name="Layer 1"><path d="M33.8 15.8h-2.6v-5.44h2.6z"/><path d="M63.3 1H21.7l2.9 5.3a1.9 1.9 0 0 1 0 1.8l-2.9 5.3h41.6a1.7 1.7 0 0 0 1.7-1.8V2.7A1.7 1.7 0 0 0 63.3 1z"/><path d="M22.7 7.6a.9.9 0 0 0 0-.9L19.5 1H2.8A1.7 1.7 0 0 0 1 2.7v8.9a1.7 1.7 0 0 0 1.7 1.7h16.8zm-18.2.5a.9.9 0 1 1 .9-.9.9.9 0 0 1-.9.9zm4.1 0a.9.9 0 1 1 .9-.9.9.9 0 0 1-.8.9zm4.1 0a.9.9 0 1 1 .9-.9.9.9 0 0 1-.8.9zm19.8 6.6a7.6 7.6 0 1 0 7.6 7.6 7.6 7.6 0 0 0-7.6-7.6zm4.9 8.5a.7.7 0 0 1-.7.7H34v2.6a.7.7 0 0 1-.7.7h-1.6a.7.7 0 0 1-.7-.7v-2.6h-2.7a.7.7 0 0 1-.7-.7v-1.6a.7.7 0 0 1 .7-.7H31v-2.7a.7.7 0 0 1 .7-.7h1.6a.7.7 0 0 1 .7.7v2.6h2.6a.7.7 0 0 1 .7.7z"/></g></svg>