<svg xmlns="http://www.w3.org/2000/svg"><symbol id="logo-16" viewBox="0 0 16 16"><g data-name="Layer 1"><path d="M8.9 4.4H6.8V2.3h2.1zM16 2.3H0V-.05h16z"/><path d="M7.9 3.6a6.2 6.2 0 1 0 6.2 6.2 6.2 6.2 0 0 0-6.2-6.2zm4 6.9a.6.6 0 0 1-.6.6H9.1v2.2a.6.6 0 0 1-.6.6H7.2a.6.6 0 0 1-.6-.6v-2.2H4.5a.6.6 0 0 1-.6-.6V9.2a.6.6 0 0 1 .6-.6h2.1V6.4a.6.6 0 0 1 .6-.6h1.3a.6.6 0 0 1 .6.6v2.2h2.2a.6.6 0 0 1 .6.6z"/></g></symbol><symbol id="logo-32" viewBox="0 0 32.4 15.2"><g data-name="Layer 1"><path d="M16.5 7.7h-1.3V4.98h1.3z"/><path d="M31.3.3H10.5L12 3a.9.9 0 0 1 0 .9l-1.5 2.6h20.8a.9.9 0 0 0 .9-.9V1.2a.9.9 0 0 0-.9-.9z"/><path d="M11 3.6a.4.4 0 0 0 0-.4L9.4.3H1.1a.9.9 0 0 0-.9.9v4.5a.9.9 0 0 0 .9.9h8.3zm-9.1.3a.5.5 0 1 1 .5-.5.5.5 0 0 1-.5.5zm2.1 0a.5.5 0 1 1 .5-.5.5.5 0 0 1-.5.5zm2.1 0a.5.5 0 1 1 .5-.5.5.5 0 0 1-.5.5zm9.8 3.3a3.8 3.8 0 1 0 3.8 3.8 3.8 3.8 0 0 0-3.8-3.8zm2.4 4.2a.4.4 0 0 1-.4.4h-1.2v1.3a.4.4 0 0 1-.4.4h-.8a.4.4 0 0 1-.4-.4v-1.3h-1.3a.4.4 0 0 1-.4-.4v-.8a.4.4 0 0 1 .4-.4h1.3V9a.4.4 0 0 1 .4-.4h.8a.4.4 0 0 1 .4.4v1.3H18a.4.4 0 0 1 .4.4z"/></g></symbol><symbol id="logo-64" viewBox="0 0 66.1 31"><g data-name="Layer 1"><path d="M33.8 15.8h-2.6v-5.44h2.6z"/><path d="M63.3 1H21.7l2.9 5.3a1.9 1.9 0 0 1 0 1.8l-2.9 5.3h41.6a1.7 1.7 0 0 0 1.7-1.8V2.7A1.7 1.7 0 0 0 63.3 1z"/><path d="M22.7 7.6a.9.9 0 0 0 0-.9L19.5 1H2.8A1.7 1.7 0 0 0 1 2.7v8.9a1.7 1.7 0 0 0 1.7 1.7h16.8zm-18.2.5a.9.9 0 1 1 .9-.9.9.9 0 0 1-.9.9zm4.1 0a.9.9 0 1 1 .9-.9.9.9 0 0 1-.8.9zm4.1 0a.9.9 0 1 1 .9-.9.9.9 0 0 1-.8.9zm19.8 6.6a7.6 7.6 0 1 0 7.6 7.6 7.6 7.6 0 0 0-7.6-7.6zm4.9 8.5a.7.7 0 0 1-.7.7H34v2.6a.7.7 0 0 1-.7.7h-1.6a.7.7 0 0 1-.7-.7v-2.6h-2.7a.7.7 0 0 1-.7-.7v-1.6a.7.7 0 0 1 .7-.7H31v-2.7a.7.7 0 0 1 .7-.7h1.6a.7.7 0 0 1 .7.7v2.6h2.6a.7.7 0 0 1 .7.7z"/></g></symbol><symbol id="logo-256" viewBox="0 0 263.1 120.8"><g data-name="Layer 1"><path d="M134.5 61.6h-10.3V39.84h10.3z"/><path d="M252.6 2.4H86.3l11.5 21.1a7.5 7.5 0 0 1 0 7.2L86.2 51.9h166.4a6.9 6.9 0 0 0 6.9-6.9V9.3a6.9 6.9 0 0 0-6.9-6.9z"/><path d="M90 28.8a3.5 3.5 0 0 0 0-3.4l-12.5-23H10.4a6.9 6.9 0 0 0-6.9 6.9V45a6.9 6.9 0 0 0 6.9 6.9h67zm-72.5 2a3.7 3.7 0 1 1 3.7-3.7 3.7 3.7 0 0 1-3.7 3.7zm16.5 0a3.7 3.7 0 1 1 3.7-3.7 3.7 3.7 0 0 1-3.7 3.7zm16.5 0a3.7 3.7 0 1 1 3.7-3.7 3.7 3.7 0 0 1-3.7 3.7zm78.9 26.6a30.5 30.5 0 1 0 30.5 30.5 30.5 30.5 0 0 0-30.5-30.5zM149 91.3a2.9 2.9 0 0 1-2.9 2.9h-10.6v10.5a2.9 2.9 0 0 1-2.9 2.9h-6.4a2.9 2.9 0 0 1-2.9-2.9V94.2h-10.6a2.9 2.9 0 0 1-2.9-2.9v-6.5a2.9 2.9 0 0 1 2.9-2.9h10.5V71.4a2.9 2.9 0 0 1 2.9-2.9h6.4a2.9 2.9 0 0 1 2.9 2.9v10.5H146a2.9 2.9 0 0 1 2.9 2.9z"/></g></symbol></svg>