<svg xmlns="http://www.w3.org/2000/svg" width="16" height="16" viewBox="0 0 16 16"><title>lrlogo16</title><g id="Layer_1" data-name="Layer 1"><rect x="6.8" y="2.3" width="2.1" height="2.1" transform="translate(15.7 6.7) rotate(180)" fill="#e57c63"/><rect width="16" height="2.35" transform="translate(16 2.3) rotate(180)" fill="#e57c63"/><path d="M7.9,3.6a6.2,6.2,0,1,0,6.2,6.2A6.2,6.2,0,0,0,7.9,3.6Zm4,6.9a.6.6,0,0,1-.6.6H9.1v2.2a.6.6,0,0,1-.6.6H7.2a.6.6,0,0,1-.6-.6V11.1H4.5a.6.6,0,0,1-.6-.6V9.2a.6.6,0,0,1,.6-.6H6.6V6.4a.6.6,0,0,1,.6-.6H8.5a.6.6,0,0,1,.6.6V8.6h2.2a.6.6,0,0,1,.6.6Z" fill="#e57c63"/></g></svg>