<svg xmlns="http://www.w3.org/2000/svg" width="664" height="311" viewBox="0 0 664 311"><title>lrlogo</title><g id="Layer_1" data-name="Layer 1"><rect x="313.5" y="103.5" width="26" height="55" transform="translate(653 262.1) rotate(180)" fill="#1a1a1a"/><path d="M638.1,9H217.8l29.1,53.2a18.9,18.9,0,0,1,0,18.2l-29.3,53.7H638.1a17.4,17.4,0,0,0,17.4-17.4V26.4A17.4,17.4,0,0,0,638.1,9Z" fill="#1a1a1a"/><path d="M227.1,75.6a8.9,8.9,0,0,0,0-8.6L195.4,9H25.9A17.4,17.4,0,0,0,8.5,26.4v90.3a17.4,17.4,0,0,0,17.4,17.4H195.1ZM43.8,80.8A9.3,9.3,0,1,1,53,71.5,9.3,9.3,0,0,1,43.8,80.8Zm41.7,0a9.3,9.3,0,1,1,9.3-9.3A9.3,9.3,0,0,1,85.5,80.8Zm41.7,0a9.3,9.3,0,1,1,9.3-9.3A9.3,9.3,0,0,1,127.2,80.8Z" fill="#1a1a1a"/><path d="M326.5,148a77,77,0,1,0,77,77A77,77,0,0,0,326.5,148ZM376,233.6a7.4,7.4,0,0,1-7.4,7.4H342v26.6a7.4,7.4,0,0,1-7.4,7.4H318.4a7.4,7.4,0,0,1-7.4-7.4V241H284.4a7.4,7.4,0,0,1-7.4-7.4V217.3a7.4,7.4,0,0,1,7.4-7.4H311V183.3a7.4,7.4,0,0,1,7.4-7.4h16.3a7.4,7.4,0,0,1,7.4,7.4V210h26.6a7.4,7.4,0,0,1,7.4,7.4Z" fill="#1a1a1a"/><rect x="313.5" y="103.5" width="26" height="55" transform="translate(653 262.1) rotate(180)" fill="#1a1a1a"/><path d="M638.1,9H217.8l29.1,53.2a18.9,18.9,0,0,1,0,18.2l-29.3,53.7H638.1a17.4,17.4,0,0,0,17.4-17.4V26.4A17.4,17.4,0,0,0,638.1,9Z" fill="#1a1a1a"/><path d="M227.1,75.6a8.9,8.9,0,0,0,0-8.6L195.4,9H25.9A17.4,17.4,0,0,0,8.5,26.4v90.3a17.4,17.4,0,0,0,17.4,17.4H195.1ZM43.8,80.8A9.3,9.3,0,1,1,53,71.5,9.3,9.3,0,0,1,43.8,80.8Zm41.7,0a9.3,9.3,0,1,1,9.3-9.3A9.3,9.3,0,0,1,85.5,80.8Zm41.7,0a9.3,9.3,0,1,1,9.3-9.3A9.3,9.3,0,0,1,127.2,80.8Z" fill="#1a1a1a"/><path d="M326.5,148a77,77,0,1,0,77,77A77,77,0,0,0,326.5,148ZM376,233.6a7.4,7.4,0,0,1-7.4,7.4H342v26.6a7.4,7.4,0,0,1-7.4,7.4H318.4a7.4,7.4,0,0,1-7.4-7.4V241H284.4a7.4,7.4,0,0,1-7.4-7.4V217.3a7.4,7.4,0,0,1,7.4-7.4H311V183.3a7.4,7.4,0,0,1,7.4-7.4h16.3a7.4,7.4,0,0,1,7.4,7.4V210h26.6a7.4,7.4,0,0,1,7.4,7.4Z" fill="#1a1a1a"/></g></svg>