<svg xmlns="http://www.w3.org/2000/svg"><symbol id="facebook-24" viewBox="0 0 24 24"><path d="M19 0H5a5 5 0 0 0-5 5v14a5 5 0 0 0 5 5h14a5 5 0 0 0 5-5V5a5 5 0 0 0-5-5zm-3 7h-1.9c-.6 0-1.1.3-1.1.9V9h3l-.2 3H13v8h-3v-8H8V9h2V7.1c0-2 1.1-3.1 3.5-3.1H16z"/></symbol><symbol id="instagram-24" viewBox="0 0 24 24"><path d="M15.2 5.5H8.8c-2.2.1-3.2 1.1-3.3 3.3s0 1.1 0 3.2v3.2c0 .8 1.1 3.2 3.3 3.3h6.5c2.2-.1 3.2-1.1 3.3-3.3s0-1.1 0-3.2V8.8c0-.8-1.2-3.2-3.4-3.3zM12 16.1a4.1 4.1 0 1 1 4.1-4.1 4.1 4.1 0 0 1-4.1 4.1zm4.3-7.4a1 1 0 1 1 1-1 1 1 0 0 1-1 1zM14.7 12A2.7 2.7 0 1 1 12 9.3a2.7 2.7 0 0 1 2.7 2.7zM19 0H5a5 5 0 0 0-5 5v14a5 5 0 0 0 5 5h14a5 5 0 0 0 5-5V5a5 5 0 0 0-5-5zm1 15.3c-.1 2.9-1.8 4.5-4.7 4.7H8.7c-2.9-.1-4.5-1.7-4.7-4.7V8.7C4.2 5.8 5.8 4.2 8.7 4h6.6c2.9.1 4.5 1.8 4.7 4.7v6.6z"/></symbol><symbol id="twitter-24" viewBox="0 0 24 24"><path d="M19 0H5a5 5 0 0 0-5 5v14a5 5 0 0 0 5 5h14a5 5 0 0 0 5-5V5a5 5 0 0 0-5-5zm-.1 9.2a9.3 9.3 0 0 1-14.4 8.3 6.6 6.6 0 0 0 4.9-1.4 3.3 3.3 0 0 1-3.1-2.3 3.3 3.3 0 0 0 1.5-.1 3.3 3.3 0 0 1-2.6-3.3 3.3 3.3 0 0 0 1.5.4 3.3 3.3 0 0 1-1-4.4 9.3 9.3 0 0 0 6.7 3.6A3.3 3.3 0 0 1 18 7a6.6 6.6 0 0 0 2.1-.8A3.3 3.3 0 0 1 18.7 8a6.6 6.6 0 0 0 1.9-.5 6.7 6.7 0 0 1-1.7 1.7z"/></symbol></svg>